<?xml version="1.0" encoding="UTF-8" standalone="no"?>
<!DOCTYPE svg PUBLIC "-//W3C//DTD SVG 1.1//EN" "http://www.w3.org/Graphics/SVG/1.1/DTD/svg11.dtd">
<!-- Created by Cary Bass http://commons.wikipedia.com/wiki/User:Bastique on January 20, 2006 -->
<svg xmlns="http://www.w3.org/2000/svg" xmlns:xlink="http://www.w3.org/1999/xlink" version="1.1" width="600" height="525">
 <path id="sign_border" d="M597.6,499.6L313.8,8c-2.9-5-8.2-8-13.9-8c-5.7,0-11,3.1-13.9,8L2.2,499.6c-2.9,5-2.9,11.1,0,16      c2.9,5,8.2,8,13.9,8h567.6c5.7,0,11-3.1,13.9-8C600.5,510.6,600.5,504.5,597.6,499.6z"/>
 <polygon id="sign_bg" fill="#F7F619" points="43.9,491.5 299.9,48.2 555.9,491.5 "/>
 <defs> <path d="M 2.8117,-1.046 A 3 3 0 0 1 .5,2.958 V 4.5119 A 10.5 10.5 0 0 1 2,25.3078 V 25.8661 A 15 15 0 0 0 14.7975,8.5433 15 15 0 0 0 23.4007,-11.201 L 22.9172,-10.9218 A 10.5 10.5 0 0 1 4.1574,-1.8229 z M 6.2265,7.825 A 10 10 0 0 1 -6.2265,7.825 9.5 9.5 0 0 0 -8.4021,10.5667 13.5 13.5 0 0 0 8.4021,10.5667 10 10 0 0 0 6.2265,7.825 z" id="p" transform="scale(10,-10) translate(26,-26)"/> </defs>
 <g id="biohazard" transform="scale(.675) translate(184,249)">
  <use xlink:href="#p"/>
  <use xlink:href="#p" transform="rotate(120, 260, 260)"/>
  <use xlink:href="#p" transform="rotate(240, 260, 260)"/>
 </g>
</svg>